<?xml version="1.0" encoding="UTF-8"?>
<svg id="Layer_1" data-name="Layer 1" xmlns="http://www.w3.org/2000/svg" viewBox="0 0 141.21 140.38">
  <defs>
    <style>
      .cls-1 {
        fill: #f75959;
      }
    </style>
  </defs>
  <rect class="cls-1" x="65.15" y="70.15" width="10.12" height="34.55" rx="3" ry="3"/>
  <rect class="cls-1" x="97.58" y="-.88" width="10.12" height="34.55" rx="3" ry="3" transform="translate(5.56 53.52) rotate(-30)"/>
  <rect class="cls-1" x="19.76" y="11.33" width="34.55" height="10.12" rx="3" ry="3" transform="translate(4.32 40.26) rotate(-60)"/>
  <g>
    <path class="cls-1" d="M10.96,121.47H3.37v4.09h6.99c.51,0,.9.12,1.15.35.25.23.38.54.38.91s-.12.69-.37.92c-.25.24-.64.36-1.16.36H3.37v4.73h7.85c.53,0,.93.12,1.2.37.27.25.4.57.4.98s-.13.71-.4.96c-.27.25-.67.37-1.2.37H2.07c-.73,0-1.26-.16-1.58-.49-.32-.33-.48-.85-.48-1.58v-12.51c0-.48.07-.88.22-1.19.14-.31.37-.53.68-.67.31-.14.7-.21,1.17-.21h8.9c.54,0,.94.12,1.2.36.26.24.39.55.39.94s-.13.71-.39.95c-.26.24-.66.36-1.2.36Z"/>
    <path class="cls-1" d="M23.12,134.04c-.75.58-1.47,1.02-2.17,1.31-.7.29-1.48.44-2.35.44-.79,0-1.49-.16-2.09-.47-.6-.31-1.06-.74-1.39-1.28s-.49-1.12-.49-1.75c0-.85.27-1.57.81-2.17s1.27-1,2.21-1.2c.2-.04.68-.15,1.46-.31.78-.16,1.45-.3,2-.44.56-.13,1.16-.29,1.81-.48-.04-.82-.2-1.42-.49-1.8s-.89-.57-1.81-.57c-.79,0-1.38.11-1.78.33-.4.22-.74.55-1.02.99-.28.44-.48.73-.6.87-.12.14-.37.21-.75.21-.35,0-.65-.11-.9-.33-.25-.22-.38-.51-.38-.86,0-.54.19-1.07.58-1.59s.99-.94,1.8-1.27c.82-.33,1.83-.5,3.05-.5,1.36,0,2.43.16,3.21.48.78.32,1.33.83,1.65,1.53.32.7.48,1.62.48,2.77,0,.73,0,1.34,0,1.85s0,1.07-.02,1.69c0,.58.1,1.19.29,1.82.19.63.29,1.04.29,1.22,0,.32-.15.61-.45.87-.3.26-.64.39-1.02.39-.32,0-.63-.15-.94-.45-.31-.3-.64-.73-.99-1.3ZM22.91,129.56c-.45.17-1.11.34-1.98.53-.87.19-1.47.32-1.8.41-.33.09-.65.26-.95.51-.3.25-.45.61-.45,1.06s.18.87.53,1.2.82.49,1.4.49c.61,0,1.18-.13,1.7-.4.52-.27.9-.61,1.14-1.04.28-.47.42-1.24.42-2.32v-.44Z"/>
    <path class="cls-1" d="M39.07,131.74c0,.85-.21,1.59-.62,2.2-.42.61-1.03,1.07-1.84,1.38-.81.31-1.8.47-2.97.47s-2.07-.17-2.86-.51c-.79-.34-1.38-.77-1.76-1.28s-.57-1.02-.57-1.54c0-.34.12-.63.36-.87s.55-.36.92-.36c.33,0,.57.08.75.24.17.16.34.38.5.67.32.55.7.96,1.14,1.24.44.27,1.05.41,1.81.41.62,0,1.13-.14,1.53-.41.4-.28.6-.59.6-.95,0-.54-.21-.94-.62-1.19-.41-.25-1.09-.49-2.04-.71-1.07-.26-1.93-.54-2.6-.83-.67-.29-1.21-.68-1.61-1.15s-.6-1.06-.6-1.76c0-.62.19-1.21.56-1.76.37-.55.92-.99,1.64-1.32.72-.33,1.59-.49,2.62-.49.8,0,1.52.08,2.16.25.64.17,1.17.39,1.6.67.43.28.75.59.98.93.22.34.33.67.33,1,0,.36-.12.65-.36.87-.24.23-.58.34-1.02.34-.32,0-.59-.09-.81-.27s-.48-.45-.77-.82c-.23-.3-.51-.54-.83-.73-.32-.18-.75-.27-1.29-.27s-1.02.12-1.4.36c-.37.24-.56.54-.56.89,0,.33.14.59.41.8.27.21.64.38,1.1.52.46.14,1.1.3,1.91.5.96.23,1.75.51,2.35.84s1.07.71,1.38,1.15c.31.44.47.95.47,1.51Z"/>
    <path class="cls-1" d="M44.55,136.17l.28-.69-3.81-9.6c-.23-.55-.35-.95-.35-1.2,0-.26.07-.51.2-.74.14-.23.32-.41.56-.54.24-.14.49-.2.74-.2.45,0,.78.14,1.01.42.23.28.43.69.6,1.22l2.62,7.63,2.49-7.09c.2-.58.37-1.03.53-1.35.16-.33.33-.54.5-.66s.43-.17.75-.17c.23,0,.46.06.68.19.22.12.38.29.5.5.12.21.18.44.18.67-.03.14-.08.35-.15.61-.07.26-.15.53-.25.81l-4.04,10.58c-.35.93-.69,1.66-1.02,2.19s-.77.94-1.32,1.22c-.55.28-1.29.43-2.22.43s-1.59-.1-2.04-.29c-.45-.2-.68-.56-.68-1.08,0-.36.11-.63.32-.82.22-.19.54-.29.96-.29.17,0,.33.02.49.07.2.04.37.07.51.07.36,0,.64-.05.84-.16.2-.11.39-.29.55-.55s.35-.64.56-1.15Z"/>
    <path class="cls-1" d="M67.15,130.51c0,1.01-.26,1.91-.78,2.71-.52.8-1.28,1.43-2.27,1.88-1,.45-2.18.68-3.55.68-1.64,0-3-.31-4.06-.93-.76-.45-1.37-1.04-1.84-1.79-.47-.75-.71-1.47-.71-2.17,0-.41.14-.76.43-1.05s.65-.44,1.08-.44c.36,0,.66.11.9.34.25.23.46.56.63,1.01.21.53.44.97.69,1.33.25.36.59.65,1.04.88.45.23,1.03.35,1.76.35,1,0,1.81-.23,2.43-.7.62-.47.94-1.05.94-1.74,0-.55-.17-1-.51-1.34-.34-.34-.77-.61-1.3-.79-.53-.18-1.25-.37-2.14-.58-1.2-.28-2.2-.61-3-.98-.81-.37-1.44-.88-1.92-1.53-.47-.65-.71-1.45-.71-2.41s.25-1.73.75-2.44,1.22-1.26,2.17-1.64c.95-.38,2.06-.57,3.34-.57,1.02,0,1.9.13,2.65.38s1.36.59,1.86,1.01c.49.42.85.86,1.08,1.32.23.46.34.91.34,1.35,0,.4-.14.76-.43,1.08-.28.32-.64.48-1.06.48-.39,0-.68-.1-.88-.29-.2-.19-.42-.51-.65-.95-.3-.63-.67-1.12-1.09-1.47-.42-.35-1.1-.53-2.04-.53-.87,0-1.57.19-2.1.57-.53.38-.8.84-.8,1.38,0,.33.09.62.27.86.18.24.43.45.75.62.32.17.64.31.96.41.33.1.86.24,1.61.43.94.22,1.79.46,2.55.73.76.27,1.41.59,1.94.96s.95.86,1.25,1.44c.3.58.45,1.29.45,2.13Z"/>
    <path class="cls-1" d="M81.39,129.49c0,.92-.14,1.77-.43,2.55-.29.78-.7,1.45-1.25,2.01-.54.56-1.2.99-1.95,1.29-.76.3-1.61.45-2.55.45s-1.78-.15-2.53-.45c-.75-.3-1.4-.74-1.95-1.3s-.96-1.23-1.25-2c-.28-.77-.43-1.62-.43-2.55s.14-1.8.43-2.58c.29-.78.7-1.44,1.24-2,.54-.55,1.19-.98,1.95-1.28.76-.3,1.61-.45,2.53-.45s1.79.15,2.55.45c.76.3,1.42.73,1.96,1.29.54.56.96,1.23,1.24,2,.28.77.43,1.62.43,2.55ZM78.28,129.49c0-1.26-.28-2.25-.83-2.95-.56-.7-1.3-1.06-2.24-1.06-.61,0-1.14.16-1.6.47-.46.31-.82.78-1.07,1.39-.25.61-.38,1.33-.38,2.14s.12,1.52.37,2.12.6,1.07,1.06,1.39c.46.32,1,.48,1.62.48.94,0,1.68-.35,2.24-1.06.56-.71.83-1.69.83-2.93Z"/>
    <path class="cls-1" d="M94.94,131.95c0,.39-.12.8-.35,1.24-.23.44-.58.86-1.06,1.25-.47.4-1.07.72-1.79.96-.72.24-1.53.36-2.43.36-1.91,0-3.41-.56-4.48-1.67-1.07-1.12-1.61-2.61-1.61-4.49,0-1.27.25-2.39.74-3.37.49-.98,1.2-1.73,2.13-2.26.93-.53,2.04-.8,3.34-.8.8,0,1.54.12,2.21.35.67.23,1.24.54,1.7.91.47.37.82.77,1.07,1.19.25.42.37.81.37,1.17s-.14.69-.41.94-.61.39-1,.39c-.26,0-.47-.07-.64-.2-.17-.13-.36-.35-.57-.64-.38-.58-.77-1.01-1.19-1.29-.41-.29-.94-.43-1.57-.43-.92,0-1.65.36-2.21,1.07-.56.71-.84,1.69-.84,2.93,0,.58.07,1.12.21,1.61.14.49.35.9.62,1.25.27.34.6.61.99.78s.81.27,1.27.27c.62,0,1.15-.14,1.59-.43.44-.29.83-.73,1.17-1.32.19-.35.39-.62.61-.82.22-.2.49-.29.81-.29.38,0,.69.14.94.43.25.29.37.59.37.92Z"/>
    <path class="cls-1" d="M104.47,134.37l-2.74-4.49-1.68,1.59v2.46c0,.6-.16,1.06-.47,1.38-.31.32-.68.48-1.08.48-.48,0-.85-.16-1.12-.48-.27-.32-.41-.79-.41-1.41v-13.21c0-.69.13-1.21.4-1.57s.64-.54,1.13-.54.85.16,1.13.49.42.81.42,1.44v7.51l3.48-3.65c.43-.45.76-.76.99-.93.23-.17.5-.25.83-.25.39,0,.71.12.96.37.26.25.39.55.39.92,0,.45-.42,1.06-1.26,1.82l-1.65,1.51,3.18,4.99c.23.37.4.65.5.85.1.19.15.38.15.55,0,.49-.13.88-.4,1.16-.27.28-.62.43-1.06.43-.38,0-.67-.1-.87-.31s-.48-.58-.83-1.11Z"/>
    <path class="cls-1" d="M117.84,130.25h-6.06c0,.7.15,1.32.43,1.86.28.54.64.94,1.1,1.21s.96.41,1.51.41c.37,0,.71-.04,1.02-.13.31-.09.6-.22.89-.41.29-.19.55-.38.79-.6s.56-.5.94-.86c.16-.14.39-.2.68-.2.32,0,.57.09.77.26.2.17.29.42.29.74,0,.28-.11.61-.33.98-.22.37-.55.73-.99,1.08-.44.34-1,.63-1.67.86-.67.23-1.44.34-2.31.34-1.99,0-3.54-.57-4.64-1.7s-1.66-2.67-1.66-4.62c0-.92.14-1.76.41-2.55s.67-1.45,1.19-2.01c.52-.56,1.17-.99,1.93-1.29.76-.3,1.61-.45,2.54-.45,1.21,0,2.25.26,3.12.77s1.51,1.17,1.95,1.98c.43.81.65,1.63.65,2.47,0,.78-.22,1.28-.67,1.51-.45.23-1.07.35-1.88.35ZM111.78,128.49h5.62c-.08-1.06-.36-1.85-.86-2.38-.5-.53-1.15-.79-1.96-.79s-1.41.27-1.9.8c-.5.53-.8,1.32-.9,2.37Z"/>
    <path class="cls-1" d="M123.17,123.46h.34v-1.86c0-.5.01-.89.04-1.17.03-.28.1-.53.22-.73.12-.21.29-.38.52-.52.23-.13.48-.2.76-.2.39,0,.75.15,1.07.44.21.2.35.44.4.72.06.28.08.69.08,1.21v2.11h1.13c.44,0,.77.1,1,.31.23.21.35.47.35.8,0,.42-.17.71-.49.87-.33.17-.8.25-1.41.25h-.58v5.7c0,.48.02.86.05,1.12s.12.47.27.64c.15.16.39.24.72.24.18,0,.43-.03.74-.1.31-.06.55-.1.73-.1.25,0,.47.1.67.3.2.2.3.45.3.74,0,.5-.27.88-.82,1.15s-1.33.4-2.35.4c-.97,0-1.7-.16-2.2-.49s-.83-.78-.98-1.35c-.16-.58-.23-1.34-.23-2.3v-5.95h-.41c-.45,0-.79-.11-1.02-.32-.23-.21-.35-.48-.35-.81s.12-.59.37-.8c.25-.21.6-.31,1.07-.31Z"/>
    <path class="cls-1" d="M141.21,131.74c0,.85-.21,1.59-.62,2.2-.42.61-1.03,1.07-1.84,1.38-.81.31-1.8.47-2.97.47s-2.07-.17-2.86-.51c-.79-.34-1.38-.77-1.76-1.28s-.57-1.02-.57-1.54c0-.34.12-.63.36-.87s.55-.36.92-.36c.33,0,.58.08.75.24s.34.38.5.67c.32.55.7.96,1.14,1.24.44.27,1.05.41,1.81.41.62,0,1.13-.14,1.53-.41.4-.28.6-.59.6-.95,0-.54-.21-.94-.62-1.19-.41-.25-1.09-.49-2.04-.71-1.07-.26-1.94-.54-2.6-.83-.67-.29-1.21-.68-1.61-1.15-.4-.48-.6-1.06-.6-1.76,0-.62.18-1.21.56-1.76.37-.55.92-.99,1.64-1.32s1.59-.49,2.62-.49c.8,0,1.52.08,2.16.25.64.17,1.17.39,1.6.67s.75.59.98.93c.22.34.33.67.33,1,0,.36-.12.65-.36.87-.24.23-.58.34-1.02.34-.32,0-.59-.09-.81-.27-.22-.18-.48-.45-.77-.82-.23-.3-.51-.54-.83-.73-.32-.18-.75-.27-1.29-.27s-1.03.12-1.4.36c-.37.24-.56.54-.56.89,0,.33.14.59.41.8s.64.38,1.1.52c.46.14,1.1.3,1.91.5.96.23,1.75.51,2.35.84s1.07.71,1.38,1.15c.31.44.47.95.47,1.51Z"/>
  </g>
</svg>